<svg width="24" height="24" viewBox="0 0 24 24" fill="none" xmlns="http://www.w3.org/2000/svg">
<path d="M4.70007 8.7793C6.67954 10.8317 9.72331 11.4435 12.3421 10.3153" stroke="#737780" stroke-width="1.5" stroke-linecap="round" stroke-linejoin="round"/>
<path fill-rule="evenodd" clip-rule="evenodd" d="M8.24902 15C10.5272 15 12.374 13.1532 12.374 10.875C12.374 8.59683 10.5272 6.75 8.24902 6.75C5.97085 6.75 4.12402 8.59683 4.12402 10.875C4.12402 13.1532 5.97085 15 8.24902 15Z" stroke="#737780" stroke-width="1.5" stroke-linecap="round" stroke-linejoin="round"/>
<path fill-rule="evenodd" clip-rule="evenodd" d="M11.999 23.25C18.2122 23.25 23.249 18.2132 23.249 12C23.249 5.7868 18.2122 0.75 11.999 0.75C5.78582 0.75 0.749023 5.7868 0.749023 12C0.749023 18.2132 5.78582 23.25 11.999 23.25Z" stroke="#737780" stroke-width="1.5" stroke-linecap="round" stroke-linejoin="round"/>
<path d="M14.987 22.8472C14.8242 20.0933 13.0018 17.7157 10.3848 16.843C7.76775 15.9703 4.88306 16.7782 3.09998 18.8832" stroke="#737780" stroke-width="1.5" stroke-linecap="round" stroke-linejoin="round"/>
<path fill-rule="evenodd" clip-rule="evenodd" d="M17.624 15.75C19.0738 15.75 20.249 14.5747 20.249 13.125C20.249 11.6753 19.0738 10.5 17.624 10.5C16.1743 10.5 14.999 11.6753 14.999 13.125C14.999 14.5747 16.1743 15.75 17.624 15.75Z" stroke="#737780" stroke-width="1.5" stroke-linecap="round" stroke-linejoin="round"/>
<path d="M21.2741 18.3685C20.3428 17.0767 18.798 16.3732 17.2121 16.5189C15.6262 16.6646 14.2354 17.6376 13.5551 19.0775" stroke="#737780" stroke-width="1.5" stroke-linecap="round" stroke-linejoin="round"/>
</svg>
