<svg width="18" height="18" viewBox="0 0 18 18" fill="none" xmlns="http://www.w3.org/2000/svg">
<path d="M4.1333 6.85352C5.45294 8.22182 7.48213 8.62967 9.22797 7.87752" stroke="#737780" stroke-width="1.5" stroke-linecap="round" stroke-linejoin="round"/>
<path fill-rule="evenodd" clip-rule="evenodd" d="M6.49927 11C8.01805 11 9.24927 9.76878 9.24927 8.25C9.24927 6.73122 8.01805 5.5 6.49927 5.5C4.98048 5.5 3.74927 6.73122 3.74927 8.25C3.74927 9.76878 4.98048 11 6.49927 11Z" stroke="#737780" stroke-width="1.5" stroke-linecap="round" stroke-linejoin="round"/>
<path fill-rule="evenodd" clip-rule="evenodd" d="M8.99927 16.5C13.1414 16.5 16.4993 13.1421 16.4993 9C16.4993 4.85786 13.1414 1.5 8.99927 1.5C4.85713 1.5 1.49927 4.85786 1.49927 9C1.49927 13.1421 4.85713 16.5 8.99927 16.5Z" stroke="#737780" stroke-width="1.5" stroke-linecap="round" stroke-linejoin="round"/>
<path d="M10.9913 16.2321C10.8828 14.3962 9.66785 12.8111 7.92318 12.2293C6.1785 11.6475 4.25537 12.1861 3.06665 13.5894" stroke="#737780" stroke-width="1.5" stroke-linecap="round" stroke-linejoin="round"/>
<path fill-rule="evenodd" clip-rule="evenodd" d="M12.7493 11.5C13.7158 11.5 14.4993 10.7165 14.4993 9.75C14.4993 8.7835 13.7158 8 12.7493 8C11.7828 8 10.9993 8.7835 10.9993 9.75C10.9993 10.7165 11.7828 11.5 12.7493 11.5Z" stroke="#737780" stroke-width="1.5" stroke-linecap="round" stroke-linejoin="round"/>
<path d="M15.1826 13.2457C14.5618 12.3844 13.5319 11.9155 12.4747 12.0126C11.4174 12.1097 10.4902 12.7584 10.0366 13.7183" stroke="#737780" stroke-width="1.5" stroke-linecap="round" stroke-linejoin="round"/>
</svg>
