<svg width="56" height="52" viewBox="0 0 56 52" fill="none" xmlns="http://www.w3.org/2000/svg">
<path fill-rule="evenodd" clip-rule="evenodd" d="M52.6236 48.2474C52.9372 48.6464 52.9575 49.179 52.6751 49.5971C52.3927 50.0151 51.8632 50.2363 51.3333 50.1575H4.66663C4.13676 50.2363 3.60723 50.0151 3.32484 49.5971C3.04245 49.179 3.06275 48.6464 3.3763 48.2474L26.957 5.06381C27.531 4.01258 28.469 4.01258 29.043 5.06381L52.6236 48.2474Z" stroke="#7F8794" stroke-linecap="round" stroke-linejoin="round"/>
<path d="M28 36.278V21.3215" stroke="#7F8794" stroke-linecap="round" stroke-linejoin="round"/>
<path d="M27.979 40.5513C27.8251 40.554 27.6788 40.6133 27.5731 40.7158C27.4674 40.8182 27.411 40.9552 27.4166 41.0961C27.4291 41.3878 27.6905 41.6187 28.0093 41.6196H28.021C28.1749 41.6168 28.3211 41.5576 28.4269 41.4551C28.5326 41.3527 28.589 41.2156 28.5833 41.0747C28.571 40.7863 28.3152 40.5567 28 40.5513H27.9883" stroke="#7F8794" stroke-linecap="round" stroke-linejoin="round"/>
</svg>
