<svg width="24" height="25" viewBox="0 0 24 25" fill="none" xmlns="http://www.w3.org/2000/svg">
<path d="M9 15.292V15.007C9 13.3501 10.3431 12.007 12 12.007C13.6569 12.007 15 13.3501 15 15.007V15.292" stroke="#7F8794" stroke-width="1.5" stroke-linecap="round" stroke-linejoin="round"/>
<path d="M14.252 5.25699L12.002 12.007" stroke="#7F8794" stroke-width="1.5" stroke-linecap="round" stroke-linejoin="round"/>
<path d="M6.37701 7.50699C6.16991 7.50699 6.00201 7.67488 6.00201 7.88199C6.00201 8.0891 6.16991 8.25699 6.37701 8.25699C6.58412 8.25699 6.75201 8.0891 6.75201 7.88199C6.75201 7.67488 6.58412 7.50699 6.37701 7.50699V7.50699" stroke="#7F8794" stroke-width="1.5" stroke-linecap="round" stroke-linejoin="round"/>
<path d="M19.127 11.257C18.9199 11.257 18.752 11.4249 18.752 11.632C18.752 11.8391 18.9199 12.007 19.127 12.007C19.3341 12.007 19.502 11.8391 19.502 11.632C19.502 11.4249 19.3341 11.257 19.127 11.257V11.257" stroke="#7F8794" stroke-width="1.5" stroke-linecap="round" stroke-linejoin="round"/>
<path d="M17.627 7.50699C17.4752 7.50618 17.3378 7.59703 17.2791 7.7371C17.2205 7.87716 17.252 8.03878 17.3591 8.14644C17.4662 8.25411 17.6277 8.28656 17.7681 8.22864C17.9084 8.17071 18 8.03385 18 7.88199C18 7.67489 17.8321 7.50699 17.625 7.50699V7.50699" stroke="#7F8794" stroke-width="1.5" stroke-linecap="round" stroke-linejoin="round"/>
<path d="M9.37701 4.50699C9.16991 4.50699 9.00201 4.67488 9.00201 4.88199C9.00201 5.0891 9.16991 5.25699 9.37701 5.25699C9.58412 5.25699 9.75201 5.0891 9.75201 4.88199C9.75201 4.67488 9.58412 4.50699 9.37701 4.50699V4.50699" stroke="#7F8794" stroke-width="1.5" stroke-linecap="round" stroke-linejoin="round"/>
<path d="M21.431 18.142C15.8384 13.9619 8.16155 13.9619 2.56897 18.142" stroke="#7F8794" stroke-width="1.5" stroke-linecap="round" stroke-linejoin="round"/>
<path fill-rule="evenodd" clip-rule="evenodd" d="M12 23.257C18.2132 23.257 23.25 18.2202 23.25 12.007C23.25 5.79379 18.2132 0.756989 12 0.756989C5.7868 0.756989 0.75 5.79379 0.75 12.007C0.75 18.2202 5.7868 23.257 12 23.257Z" stroke="#7F8794" stroke-width="1.5" stroke-linecap="round" stroke-linejoin="round"/>
<path d="M4.87701 11.257C4.66991 11.257 4.50201 11.4249 4.50201 11.632C4.50201 11.8391 4.66991 12.007 4.87701 12.007C5.08412 12.007 5.25201 11.8391 5.25201 11.632C5.25201 11.4249 5.08412 11.257 4.87701 11.257" stroke="#7F8794" stroke-width="1.5" stroke-linecap="round" stroke-linejoin="round"/>
</svg>
