<svg width="56" height="56" viewBox="0 0 56 56" fill="none" xmlns="http://www.w3.org/2000/svg">
<path fill-rule="evenodd" clip-rule="evenodd" d="M38.6564 53.606C38.5024 54.229 38.1897 54.2476 37.9564 53.648L28.791 29.533C28.5577 28.9333 28.868 28.6276 29.4677 28.8516L53.683 37.933C54.2827 38.1663 54.2664 38.4696 53.6434 38.633L41.5754 41.65L38.6564 53.606Z" stroke="#7F8794" stroke-linecap="round" stroke-linejoin="round"/>
<path d="M47.3223 28.973C47.2243 29.3953 47.124 29.8176 47.012 30.2376" stroke="#7F8794" stroke-linecap="round" stroke-linejoin="round"/>
<path d="M29.1154 47.2684C28.1494 47.3874 27.1974 47.6231 26.2244 47.6487" stroke="#7F8794" stroke-linecap="round" stroke-linejoin="round"/>
<path d="M19.2733 47.1335C17.3749 46.7024 15.5382 46.0345 13.8063 45.1455" stroke="#7F8794" stroke-linecap="round" stroke-linejoin="round"/>
<path d="M9.06033 41.9207C7.59788 40.6373 6.2979 39.1798 5.18933 37.5807" stroke="#7F8794" stroke-linecap="round" stroke-linejoin="round"/>
<path d="M2.14669 31.304C1.58945 29.4396 1.26038 27.5146 1.16669 25.571" stroke="#7F8794" stroke-linecap="round" stroke-linejoin="round"/>
<path d="M1.56097 19.8336C1.95422 17.9267 2.58118 16.0756 3.42764 14.3222" stroke="#7F8794" stroke-linecap="round" stroke-linejoin="round"/>
<path d="M7.3407 8.56557C8.65708 7.13171 10.1517 5.87236 11.788 4.81824" stroke="#7F8794" stroke-linecap="round" stroke-linejoin="round"/>
<path d="M16.9611 2.31932C17.8687 1.96932 18.8277 1.80132 19.7611 1.53999C20.7317 1.42099 21.6837 1.18766 22.6567 1.16666" stroke="#7F8794" stroke-linecap="round" stroke-linejoin="round"/>
<path d="M29.61 1.66581C31.5083 2.09612 33.345 2.76323 35.077 3.65148" stroke="#7F8794" stroke-linecap="round" stroke-linejoin="round"/>
<path d="M39.8207 6.88819C41.2851 8.17124 42.586 9.62965 43.6941 11.2305" stroke="#7F8794" stroke-linecap="round" stroke-linejoin="round"/>
<path d="M46.7367 17.5C47.2941 19.3643 47.6232 21.2894 47.7167 23.233" stroke="#7F8794" stroke-linecap="round" stroke-linejoin="round"/>
</svg>
