<svg width="56" height="56" viewBox="0 0 56 56" fill="none" xmlns="http://www.w3.org/2000/svg">
<path fill-rule="evenodd" clip-rule="evenodd" d="M26.8334 27.8334C26.8334 27.2811 27.2811 26.8334 27.8334 26.8334H53.8334C54.3857 26.8334 54.8334 27.2811 54.8334 27.8334V53.8334C54.8334 54.3857 54.3857 54.8334 53.8334 54.8334H27.8334C27.2811 54.8334 26.8334 54.3857 26.8334 53.8334V27.8334Z" stroke="#7F8794" stroke-linecap="round" stroke-linejoin="round"/>
<path fill-rule="evenodd" clip-rule="evenodd" d="M36.4584 39.6667C38.3914 39.6667 39.9584 38.0997 39.9584 36.1667C39.9584 34.2337 38.3914 32.6667 36.4584 32.6667C34.5254 32.6667 32.9584 34.2337 32.9584 36.1667C32.9584 38.0997 34.5254 39.6667 36.4584 39.6667Z" stroke="#7F8794" stroke-linecap="round" stroke-linejoin="round"/>
<path d="M54.8334 49.5836L49.2544 41.2139C48.9338 40.7324 48.3959 40.4404 47.8175 40.4339C47.2391 40.4274 46.6948 40.7071 46.3634 41.1812L41.6967 47.8336L38.8127 45.5259C38.4293 45.2199 37.9351 45.0887 37.4504 45.1641C36.9657 45.2395 36.5348 45.5146 36.2624 45.9226L30.3334 54.8335" stroke="#7F8794" stroke-linecap="round" stroke-linejoin="round"/>
<path fill-rule="evenodd" clip-rule="evenodd" d="M17.5 21C22.9769 21 27.4167 16.5602 27.4167 11.0833C27.4167 5.60653 22.9769 1.16668 17.5 1.16668C12.0232 1.16668 7.58337 5.60653 7.58337 11.0833C7.58337 16.5602 12.0232 21 17.5 21Z" stroke="#7F8794" stroke-linecap="round" stroke-linejoin="round"/>
<path d="M19.8334 24.6658C15.1434 23.9928 10.3921 25.388 6.81066 28.49C3.22922 31.592 1.17005 36.0954 1.16669 40.8334H19.8334" stroke="#7F8794" stroke-linecap="round" stroke-linejoin="round"/>
</svg>
