<svg width="25" height="25" viewBox="0 0 25 25" fill="none" xmlns="http://www.w3.org/2000/svg">
<path fill-rule="evenodd" clip-rule="evenodd" d="M4.94901 9.78305C4.54804 10.0183 4.27882 10.4262 4.2201 10.8873C4.16137 11.3485 4.31979 11.8108 4.64901 12.139L12.862 20.352C13.1902 20.6813 13.6526 20.8397 14.1137 20.781C14.5749 20.7222 14.9828 20.453 15.218 20.052C16.1908 18.3784 16.4809 16.3941 16.028 14.512L22.557 10.357C22.9409 10.1129 23.1932 9.70769 23.243 9.25546C23.2928 8.80323 23.1346 8.35286 22.813 8.03105L16.97 2.18805C16.6483 1.86635 16.1981 1.70802 15.7458 1.7576C15.2936 1.80718 14.8883 2.0593 14.644 2.44305L10.489 8.97305C8.60691 8.52011 6.62265 8.81023 4.94901 9.78305Z" stroke="#7F8794" stroke-width="1.5" stroke-linecap="round" stroke-linejoin="round"/>
<path d="M8.753 16.2461L0.75 24.2491" stroke="#7F8794" stroke-width="1.5" stroke-linecap="round" stroke-linejoin="round"/>
</svg>
