<svg width="24" height="25" viewBox="0 0 24 25" fill="none" xmlns="http://www.w3.org/2000/svg">
<path fill-rule="evenodd" clip-rule="evenodd" d="M4.285 1.48999H4.274C2.21422 1.94763 0.749008 3.77498 0.750001 5.88499V6.77499C0.750001 7.17281 0.908036 7.55434 1.18934 7.83565C1.47064 8.11695 1.85218 8.27499 2.25 8.27499H6C6.82843 8.27499 7.5 7.60342 7.5 6.77499V6.77499C7.5 5.94656 8.17157 5.27499 9 5.27499H15C15.8284 5.27499 16.5 5.94656 16.5 6.77499V6.77499C16.5 7.60342 17.1716 8.27499 18 8.27499H21.75C22.5784 8.27499 23.25 7.60342 23.25 6.77499V5.88499C23.2501 3.77573 21.7851 1.94946 19.726 1.49199H19.715C14.6191 0.504809 9.38116 0.50413 4.285 1.48999Z" stroke="#7F8794" stroke-width="1.5" stroke-linecap="round" stroke-linejoin="round"/>
<path fill-rule="evenodd" clip-rule="evenodd" d="M12.305 11.275H11.7C7.1608 11.2748 3.33186 14.6549 2.769 19.159L2.676 19.903C2.5693 20.7569 2.83439 21.6155 3.4039 22.2605C3.97341 22.9056 4.7925 23.2751 5.653 23.275H18.353C19.2137 23.2746 20.0328 22.9045 20.602 22.2588C21.1712 21.6131 21.4356 20.754 21.328 19.9L21.235 19.156C20.6708 14.6534 16.8428 11.2751 12.305 11.275Z" stroke="#7F8794" stroke-width="1.5" stroke-linecap="round" stroke-linejoin="round"/>
<path d="M9.75 11.487V9.02502" stroke="#7F8794" stroke-width="1.5" stroke-linecap="round" stroke-linejoin="round"/>
<path d="M14.25 11.487V9.02502" stroke="#7F8794" stroke-width="1.5" stroke-linecap="round" stroke-linejoin="round"/>
<path fill-rule="evenodd" clip-rule="evenodd" d="M12 20.275C13.6569 20.275 15 18.9319 15 17.275C15 15.6182 13.6569 14.275 12 14.275C10.3431 14.275 9 15.6182 9 17.275C9 18.9319 10.3431 20.275 12 20.275Z" stroke="#7F8794" stroke-width="1.5" stroke-linecap="round" stroke-linejoin="round"/>
</svg>
