<svg width="25" height="24" viewBox="0 0 25 24" fill="none" xmlns="http://www.w3.org/2000/svg">
<path fill-rule="evenodd" clip-rule="evenodd" d="M12 5.25096C7.96901 5.18296 3.80001 7.99996 1.17901 10.885C0.609194 11.5176 0.609194 12.4784 1.17901 13.111C3.74301 15.935 7.90001 18.817 12 18.748C16.1 18.817 20.258 15.935 22.824 13.111C23.3938 12.4784 23.3938 11.5176 22.824 10.885C20.2 7.99996 16.031 5.18296 12 5.25096Z" stroke="#7F8794" stroke-width="1.5" stroke-linecap="round" stroke-linejoin="round"/>
<path fill-rule="evenodd" clip-rule="evenodd" d="M15.75 12C15.7494 14.071 14.0703 15.7494 11.9993 15.749C9.9284 15.7487 8.24982 14.0696 8.25 11.9987C8.25018 9.92775 9.92906 8.24902 12 8.24902C12.9948 8.24876 13.9489 8.6439 14.6523 9.34743C15.3556 10.051 15.7505 11.0052 15.75 12V12Z" stroke="#7F8794" stroke-width="1.5" stroke-linecap="round" stroke-linejoin="round"/>
</svg>
