<svg width="24" height="24" viewBox="0 0 24 24" fill="none" xmlns="http://www.w3.org/2000/svg"><rect width="24" height="24" fill="#C4C4C4"/>
<path d="M15.8257 20.4749H3.61499L11.6332 2.31815L17.1883 14.5063H13.3626M13.6324 14.5C13.6324 15.6046 12.737 16.5 11.6324 16.5C10.5279 16.5 9.63245 15.6046 9.63245 14.5C9.63245 13.3954 10.5279 12.5 11.6324 12.5C12.737 12.5 13.6324 13.3954 13.6324 14.5ZM20.1416 20.446C20.1416 21.5506 19.2462 22.446 18.1416 22.446C17.037 22.446 16.1416 21.5506 16.1416 20.446C16.1416 19.3415 17.037 18.446 18.1416 18.446C19.2462 18.446 20.1416 19.3415 20.1416 20.446Z" stroke="#333333"/>
</svg>
