<svg width="56" height="56" viewBox="0 0 56 56" fill="none" xmlns="http://www.w3.org/2000/svg">
<path d="M24.5 54.8327H3.50002C2.21136 54.8327 1.16669 53.788 1.16669 52.4994V3.49935C1.16669 2.21068 2.21136 1.16602 3.50002 1.16602H34.517C35.1362 1.16677 35.7296 1.41354 36.1667 1.85202L44.8164 10.4993C45.254 10.9368 45.4999 11.5302 45.5 12.149V19.8327" stroke="#00B2A4" stroke-linecap="round" stroke-linejoin="round"/>
<path d="M21.098 36.1187C15.1215 35.5674 10.5384 30.5717 10.5031 24.5699C10.4679 18.5682 14.992 13.5189 20.9615 12.8974C26.9311 12.2759 32.3983 16.285 33.6 22.1654" stroke="#00B2A4" stroke-linecap="round" stroke-linejoin="round"/>
<path d="M22.1667 17.502V24.502H26.8333" stroke="#00B2A4" stroke-linecap="round" stroke-linejoin="round"/>
<path fill-rule="evenodd" clip-rule="evenodd" d="M40.8334 54.8359C48.5654 54.8359 54.8334 48.5679 54.8334 40.8359C54.8334 33.104 48.5654 26.8359 40.8334 26.8359C33.1014 26.8359 26.8334 33.104 26.8334 40.8359C26.8334 48.5679 33.1014 54.8359 40.8334 54.8359Z" stroke="#00B2A4" stroke-linecap="round" stroke-linejoin="round"/>
<path d="M47.0726 36.7637L40.2943 45.803C39.9893 46.2086 39.5235 46.4621 39.0173 46.4979C38.5111 46.5337 38.0143 46.3483 37.6553 45.9897L34.1553 42.4897" stroke="#00B2A4" stroke-linecap="round" stroke-linejoin="round"/>
</svg>
