<svg width="56" height="56" viewBox="0 0 56 56" fill="none" xmlns="http://www.w3.org/2000/svg">
<path d="M24.5 54.8327H3.50002C2.21136 54.8327 1.16669 53.788 1.16669 52.4994V3.49935C1.16669 2.21068 2.21136 1.16602 3.50002 1.16602H34.517C35.1362 1.16677 35.7296 1.41354 36.1667 1.85202L44.8164 10.4993C45.254 10.9368 45.4999 11.5302 45.5 12.149V19.8327" stroke="#737780" stroke-linecap="round" stroke-linejoin="round"/>
<path d="M20.8554 36.0963C15.1327 35.4472 10.74 30.7193 10.5126 24.9645C10.2853 19.2096 14.2914 14.1499 19.945 13.0514C25.5986 11.9529 31.2079 15.1443 33.152 20.5656" stroke="#737780" stroke-linecap="round" stroke-linejoin="round"/>
<path d="M22.1667 17.502V24.502H26.8333" stroke="#737780" stroke-linecap="round" stroke-linejoin="round"/>
<path fill-rule="evenodd" clip-rule="evenodd" d="M40.8334 54.8359C48.5654 54.8359 54.8334 48.5679 54.8334 40.8359C54.8334 33.104 48.5654 26.8359 40.8334 26.8359C33.1014 26.8359 26.8334 33.104 26.8334 40.8359C26.8334 48.5679 33.1014 54.8359 40.8334 54.8359Z" stroke="#737780" stroke-linecap="round" stroke-linejoin="round"/>
<path d="M40.8334 47.8359V33.8359" stroke="#737780" stroke-linecap="round" stroke-linejoin="round"/>
<path d="M40.8334 33.8359L35.5834 39.0859" stroke="#737780" stroke-linecap="round" stroke-linejoin="round"/>
<path d="M40.8334 33.8359L46.0834 39.0859" stroke="#737780" stroke-linecap="round" stroke-linejoin="round"/>
</svg>
