<svg width="24" height="24" viewBox="0 0 24 24" fill="none" xmlns="http://www.w3.org/2000/svg">
<path d="M4.511 20.331H2.249C1.23862 20.2129 0.482328 19.3481 0.499998 18.331C0.500942 17.8689 0.685481 17.426 1.013 17.1L9.013 9.053L9.513 3.596C9.87417 2.40106 10.6693 1.38444 11.742 0.746C11.9039 0.645081 12.1091 0.645081 12.271 0.746C13.3448 1.38253 14.1417 2.39772 14.505 3.592L15 9.049L22.994 17.1C23.3187 17.4265 23.5007 17.8685 23.5 18.329C23.5177 19.3461 22.7614 20.2109 21.751 20.329H19.5" stroke="#818894" stroke-linecap="round" stroke-linejoin="round"/>
<path fill-rule="evenodd" clip-rule="evenodd" d="M4.51099 21.33H8.51099V18.33C8.51099 17.7777 8.06327 17.33 7.51099 17.33H5.51099C4.9587 17.33 4.51099 17.7777 4.51099 18.33L4.51099 21.33Z" stroke="#818894" stroke-linecap="round" stroke-linejoin="round"/>
<path fill-rule="evenodd" clip-rule="evenodd" d="M15.505 21.331H19.505V18.331C19.505 17.7787 19.0573 17.331 18.505 17.331H16.505C15.9527 17.331 15.505 17.7787 15.505 18.331L15.505 21.331Z" stroke="#818894" stroke-linecap="round" stroke-linejoin="round"/>
<path d="M12.007 22.08C12.0065 21.1143 11.2237 20.3316 10.258 20.331H8.509" stroke="#818894" stroke-linecap="round" stroke-linejoin="round"/>
<path d="M12.007 22.08C12.0075 21.1143 12.7903 20.3316 13.756 20.331H15.505" stroke="#818894" stroke-linecap="round" stroke-linejoin="round"/>
<path d="M6.51001 17.333V18.832" stroke="#818894" stroke-linecap="round" stroke-linejoin="round"/>
<path d="M17.504 17.333V18.832" stroke="#818894" stroke-linecap="round" stroke-linejoin="round"/>
<path d="M8.509 12.836V15.335" stroke="#818894" stroke-linecap="round" stroke-linejoin="round"/>
<path d="M15.505 12.836V15.335" stroke="#818894" stroke-linecap="round" stroke-linejoin="round"/>
<path d="M6.51001 21.331V23.33" stroke="#818894" stroke-linecap="round" stroke-linejoin="round"/>
<path d="M17.504 21.331V23.33" stroke="#818894" stroke-linecap="round" stroke-linejoin="round"/>
<path d="M4.51099 21.331V22.33" stroke="#818894" stroke-linecap="round" stroke-linejoin="round"/>
<path d="M8.509 21.331V22.33" stroke="#818894" stroke-linecap="round" stroke-linejoin="round"/>
<path d="M15.505 21.331V22.33" stroke="#818894" stroke-linecap="round" stroke-linejoin="round"/>
<path d="M19.502 21.081V22.33" stroke="#818894" stroke-linecap="round" stroke-linejoin="round"/>
<path d="M14.237 2.853C13.5548 3.24699 12.7808 3.45396 11.993 3.453C11.2134 3.45398 10.4471 3.25128 9.76999 2.865" stroke="#818894" stroke-linecap="round" stroke-linejoin="round"/>
</svg>
