<svg width="24" height="24" viewBox="0 0 24 24" fill="none" xmlns="http://www.w3.org/2000/svg">
<path fill-rule="evenodd" clip-rule="evenodd" d="M23.119 20L13.772 2.15C13.4267 1.49114 12.7443 1.07832 12.0005 1.07832C11.2567 1.07832 10.5743 1.49114 10.229 2.15L0.881 20C0.556233 20.62 0.579222 21.3647 0.941615 21.9635C1.30401 22.5623 1.95307 22.9281 2.653 22.928H21.347C22.0469 22.9281 22.696 22.5623 23.0584 21.9635C23.4208 21.3647 23.4438 20.62 23.119 20ZM11 8.423C11 7.87071 11.4477 7.423 12 7.423C12.5523 7.423 13 7.87071 13 8.423V14.423C13 14.9753 12.5523 15.423 12 15.423C11.4477 15.423 11 14.9753 11 14.423V8.423ZM12.022 19.933H12.05C12.4471 19.9266 12.8248 19.7603 13.0977 19.4718C13.3706 19.1832 13.5157 18.7968 13.5 18.4C13.4678 17.5813 12.7953 16.934 11.976 16.933H11.948C11.5519 16.9402 11.1753 17.1064 10.903 17.3942C10.6307 17.6819 10.4854 18.0671 10.5 18.463C10.5311 19.2818 11.2026 19.9304 12.022 19.933Z" fill="#737780"/>
</svg>
