<svg width="24" height="24" viewBox="0 0 24 24" fill="none" xmlns="http://www.w3.org/2000/svg">
<path d="M19.805 10.12C19.6287 9.57494 19.1587 9.17696 18.592 9.093L14.967 8.57L13.341 5.3C13.0872 4.79088 12.5673 4.4691 11.9985 4.4691C11.4296 4.4691 10.9097 4.79088 10.656 5.3L9.03499 8.569L5.41099 9.093C4.84714 9.17714 4.37875 9.57166 4.19999 10.113C4.02035 10.6577 4.16886 11.2572 4.58199 11.655L7.19999 14.191L6.58099 17.776C6.4848 18.3382 6.71575 18.9063 7.17692 19.2418C7.63808 19.5774 8.24966 19.6224 8.75499 19.358L12 17.662L15.248 19.362C15.7537 19.6268 16.3658 19.5817 16.8272 19.2455C17.2885 18.9094 17.5191 18.3405 17.422 17.778L16.8 14.192L19.418 11.655C19.8285 11.2586 19.9785 10.6636 19.805 10.12Z" fill="#737780"/>
</svg>
