<svg width="18" height="18" viewBox="0 0 18 18" fill="none" xmlns="http://www.w3.org/2000/svg">
<path d="M7 6.99975C7.00019 5.9827 7.76364 5.12776 8.77418 5.01292C9.78472 4.89809 10.7205 5.55993 10.9489 6.55101C11.1773 7.54208 10.6255 8.54673 9.66667 8.88575C9.26694 9.02707 8.99978 9.40511 9 9.82908V9.99975" stroke="#737780" stroke-width="1.5" stroke-linecap="round" stroke-linejoin="round"/>
<path d="M9 12C8.86193 12 8.75 12.1119 8.75 12.25C8.75 12.3881 8.86193 12.5 9 12.5C9.13807 12.5 9.25 12.3881 9.25 12.25C9.25 12.1119 9.13807 12 9 12V12" stroke="#737780" stroke-width="1.5" stroke-linecap="round" stroke-linejoin="round"/>
<path fill-rule="evenodd" clip-rule="evenodd" d="M1.5 3C1.5 2.17157 2.17157 1.5 3 1.5H15C15.8284 1.5 16.5 2.17157 16.5 3V15C16.5 15.8284 15.8284 16.5 15 16.5H3C2.17157 16.5 1.5 15.8284 1.5 15V3Z" stroke="#737780" stroke-width="1.5" stroke-linecap="round" stroke-linejoin="round"/>
</svg>
