<svg width="16" height="16" viewBox="0 0 16 16" fill="none" xmlns="http://www.w3.org/2000/svg">
<path fill-rule="evenodd" clip-rule="evenodd" d="M15.4126 13.3333L9.18128 1.43334C8.9511 0.994097 8.49617 0.718887 8.00028 0.718887C7.50438 0.718887 7.04946 0.994097 6.81928 1.43334L0.587279 13.3333C0.370768 13.7467 0.386094 14.2431 0.62769 14.6423C0.869285 15.0416 1.30199 15.2854 1.76861 15.2853H14.2313C14.6979 15.2854 15.1306 15.0416 15.3722 14.6423C15.6138 14.2431 15.6291 13.7467 15.4126 13.3333ZM7.33328 5.61533C7.33328 5.24715 7.63176 4.94867 7.99995 4.94867C8.36814 4.94867 8.66661 5.24715 8.66661 5.61533V9.61533C8.66661 9.98352 8.36814 10.282 7.99995 10.282C7.63176 10.282 7.33328 9.98352 7.33328 9.61533V5.61533ZM8.01461 13.2887H8.03328C8.29801 13.2844 8.54983 13.1735 8.73177 12.9812C8.91371 12.7888 9.01039 12.5312 8.99995 12.2667C8.97849 11.7209 8.53014 11.2893 7.98395 11.2887H7.96528C7.7012 11.2935 7.45015 11.4043 7.2686 11.5961C7.08705 11.788 6.99024 12.0447 6.99995 12.3087C7.02068 12.8546 7.46833 13.2869 8.01461 13.2887Z" fill="#737780"/>
</svg>
