<svg width="56" height="56" viewBox="0 0 56 56" fill="none" xmlns="http://www.w3.org/2000/svg">
<path fill-rule="evenodd" clip-rule="evenodd" d="M8.60767 4.66669C7.6399 4.66716 6.77287 5.26498 6.42834 6.16935L2.73934 15.848C2.34388 16.887 2.3323 18.033 2.70667 19.0797C3.76111 22.0148 6.77272 23.7673 9.84557 23.2339C12.9184 22.7005 15.1632 20.0355 15.1667 16.9167C15.1667 20.4605 18.0395 23.3334 21.5833 23.3334C25.1272 23.3334 28 20.4605 28 16.9167C28 20.4605 30.8728 23.3334 34.4167 23.3334C37.9605 23.3334 40.8333 20.4605 40.8333 16.9167C40.8368 20.0355 43.0816 22.7005 46.1544 23.2339C49.2273 23.7673 52.2389 22.0148 53.2933 19.0797C53.6682 18.0329 53.6558 16.8865 53.2583 15.848L49.5717 6.16935C49.2271 5.26498 48.3601 4.66716 47.3923 4.66669L8.60767 4.66669Z" stroke="#737780" stroke-linecap="round" stroke-linejoin="round"/>
<path fill-rule="evenodd" clip-rule="evenodd" d="M11.5663 30.8334C11.5663 30.5572 11.7901 30.3334 12.0663 30.3334H27.3996C27.6758 30.3334 27.8996 30.5572 27.8996 30.8334V43.8334C27.8996 44.1095 27.6758 44.3334 27.3996 44.3334H12.0663C11.7901 44.3334 11.5663 44.1095 11.5663 43.8334V30.8334Z" stroke="#737780" stroke-linecap="round" stroke-linejoin="round"/>
<path d="M32.5663 51.3334V31.5C32.5663 30.8557 33.0886 30.3334 33.733 30.3334H43.0663C43.7106 30.3334 44.233 30.8557 44.233 31.5V51.3334" stroke="#737780" stroke-linecap="round" stroke-linejoin="round"/>
<path d="M48.8997 23.1184V48.9997C48.8997 50.2884 47.855 51.3331 46.5663 51.3331H9.23299C7.94433 51.3331 6.89966 50.2884 6.89966 48.9997V23.0624" stroke="#737780" stroke-linecap="round" stroke-linejoin="round"/>
</svg>
