<svg width="24" height="24" viewBox="0 0 24 24" fill="none" xmlns="http://www.w3.org/2000/svg">
<path fill-rule="evenodd" clip-rule="evenodd" d="M12 0.710938C16.1421 0.710938 19.5 4.0688 19.5 8.21094C19.5 11.7579 14 20.5919 12.421 23.0609C12.3291 23.2044 12.1704 23.2912 12 23.2912C11.8296 23.2912 11.6709 23.2044 11.579 23.0609C10 20.5929 4.5 11.7579 4.5 8.21094C4.5 4.0688 7.85786 0.710938 12 0.710938Z" stroke="#737780" stroke-linecap="round" stroke-linejoin="round"/>
<path fill-rule="evenodd" clip-rule="evenodd" d="M12 11.2109C13.6569 11.2109 15 9.86779 15 8.21094C15 6.55408 13.6569 5.21094 12 5.21094C10.3431 5.21094 9 6.55408 9 8.21094C9 9.86779 10.3431 11.2109 12 11.2109Z" stroke="#737780" stroke-linecap="round" stroke-linejoin="round"/>
</svg>
