<?xml version="1.0" standalone="no"?>
<!DOCTYPE svg PUBLIC "-//W3C//DTD SVG 20010904//EN"
 "http://www.w3.org/TR/2001/REC-SVG-20010904/DTD/svg10.dtd">
<svg version="1.0" xmlns="http://www.w3.org/2000/svg"
 width="260.000000pt" height="260.000000pt" viewBox="0 0 260.000000 260.000000"
 preserveAspectRatio="xMidYMid meet">
<metadata>
Created by potrace 1.11, written by Peter Selinger 2001-2013
</metadata>
<g transform="translate(0.000000,260.000000) scale(0.100000,-0.100000)"
fill="#000000" stroke="none">
<path d="M1289 2183 c-8 -10 -35 -47 -59 -83 -24 -36 -48 -69 -53 -75 -4 -5
-107 -152 -228 -325 -121 -173 -238 -340 -259 -370 -22 -30 -65 -93 -97 -140
-32 -47 -60 -87 -63 -90 -4 -3 -35 -48 -71 -100 -35 -52 -66 -97 -69 -100 -14
-14 -70 -99 -70 -107 0 -7 137 -112 185 -140 199 -120 434 -202 627 -218 44
-4 44 -4 53 115 3 47 8 110 10 141 l4 56 -60 7 c-78 9 -211 48 -294 85 -36 17
-65 31 -65 33 0 2 27 41 60 88 32 47 84 121 115 165 31 44 81 116 111 160 160
231 238 335 244 328 7 -7 92 -128 283 -403 21 -30 65 -93 98 -140 33 -47 78
-111 100 -142 l39 -57 -39 -20 c-46 -24 -199 -76 -256 -87 -22 -5 -43 -9 -47
-10 -5 -1 -24 -2 -44 -3 l-37 -1 7 -92 c4 -51 9 -102 11 -113 2 -11 4 -42 4
-68 l1 -48 48 5 c67 7 192 34 270 57 74 23 263 103 302 129 14 10 64 43 112
74 47 32 96 68 107 80 l21 23 -212 304 c-117 167 -221 315 -231 329 -10 14
-77 108 -148 210 -70 102 -133 192 -139 200 -6 8 -63 89 -126 180 -63 91 -119
168 -123 173 -4 4 -14 -1 -22 -10z"/>
</g>
</svg>
