<svg width="24" height="24" viewBox="0 0 24 24" fill="none" xmlns="http://www.w3.org/2000/svg">
<path fill-rule="evenodd" clip-rule="evenodd" d="M19.5001 15.7502L22.8111 12.4392C23.3966 11.8534 23.3966 10.9039 22.8111 10.3182L20.7001 8.21218C20.0431 9.77096 18.4239 10.697 16.7473 10.4727C15.0707 10.2485 13.7517 8.92956 13.5275 7.25293C13.3033 5.5763 14.2293 3.95711 15.7881 3.30018L13.6821 1.18918C13.0963 0.603607 12.1468 0.603607 11.5611 1.18918L8.25006 4.50018C8.25006 2.42911 6.57113 0.75018 4.50006 0.75018C2.42899 0.75018 0.750058 2.42911 0.750058 4.50018C0.750058 6.57125 2.42899 8.25018 4.50006 8.25018L1.18906 11.5612C0.603485 12.1469 0.603485 13.0964 1.18906 13.6822L3.30006 15.7882C3.95699 14.2294 5.57618 13.3034 7.25281 13.5276C8.92944 13.7518 10.2484 15.0708 10.4726 16.7474C10.6969 18.4241 9.77084 20.0432 8.21206 20.7002L10.3181 22.8072C10.9038 23.3928 11.8533 23.3928 12.4391 22.8072L15.7501 19.5002C15.7501 21.5712 17.429 23.2502 19.5001 23.2502C21.5711 23.2502 23.2501 21.5712 23.2501 19.5002C23.2501 17.4291 21.5711 15.7502 19.5001 15.7502Z" stroke="#737780" stroke-width="1.5" stroke-linecap="round" stroke-linejoin="round"/>
</svg>
