<svg width="24" height="25" viewBox="0 0 24 25" fill="none" xmlns="http://www.w3.org/2000/svg">
<path fill-rule="evenodd" clip-rule="evenodd" d="M4.285 1.49084H4.274C2.21422 1.94848 0.749008 3.77583 0.750001 5.88584V6.77584C0.750001 7.17367 0.908036 7.5552 1.18934 7.8365C1.47064 8.11781 1.85218 8.27584 2.25 8.27584H6C6.82843 8.27584 7.5 7.60427 7.5 6.77584V6.77584C7.5 5.94742 8.17157 5.27584 9 5.27584H15C15.8284 5.27584 16.5 5.94742 16.5 6.77584V6.77584C16.5 7.60427 17.1716 8.27584 18 8.27584H21.75C22.5784 8.27584 23.25 7.60427 23.25 6.77584V5.88584C23.2501 3.77658 21.7851 1.95032 19.726 1.49284H19.715C14.6191 0.505663 9.38116 0.504984 4.285 1.49084Z" stroke="#737780" stroke-width="1.5" stroke-linecap="round" stroke-linejoin="round"/>
<path fill-rule="evenodd" clip-rule="evenodd" d="M12.305 11.2754H11.7C7.1608 11.2752 3.33186 14.6552 2.769 19.1594L2.676 19.9034C2.5693 20.7573 2.83439 21.6158 3.4039 22.2609C3.97341 22.906 4.7925 23.2754 5.653 23.2754H18.353C19.2137 23.275 20.0328 22.9049 20.602 22.2592C21.1712 21.6135 21.4356 20.7544 21.328 19.9004L21.235 19.1564C20.6708 14.6538 16.8428 11.2755 12.305 11.2754Z" stroke="#737780" stroke-width="1.5" stroke-linecap="round" stroke-linejoin="round"/>
<path d="M9.75 11.4874V9.02539" stroke="#737780" stroke-width="1.5" stroke-linecap="round" stroke-linejoin="round"/>
<path d="M14.25 11.4874V9.02539" stroke="#737780" stroke-width="1.5" stroke-linecap="round" stroke-linejoin="round"/>
<path fill-rule="evenodd" clip-rule="evenodd" d="M12 20.2754C13.6569 20.2754 15 18.9322 15 17.2754C15 15.6185 13.6569 14.2754 12 14.2754C10.3431 14.2754 9 15.6185 9 17.2754C9 18.9322 10.3431 20.2754 12 20.2754Z" stroke="#737780" stroke-width="1.5" stroke-linecap="round" stroke-linejoin="round"/>
</svg>
