<svg class="card-header__label-icon" version="1.1" id="Layer_1" xmlns="http://www.w3.org/2000/svg" xmlns:xlink="http://www.w3.org/1999/xlink" x="0px" y="0px" width="16px" height="18px" viewBox="0 0 16 18" enable-background="new 0 0 16 18" xml:space="preserve">
					<path fill="none" fill-rule="evenodd" clip-rule="evenodd" d="M2.5 9C2.5 8.17157 3.17157 7.5 4 7.5H12C12.8284 7.5 13.5 8.17157 13.5 9V15C13.5 15.8284 12.8284 16.5 12 16.5H4C3.17157 16.5 2.5 15.8284 2.5 15V9Z" stroke="#737780" stroke-width="1.5" stroke-linecap="round" stroke-linejoin="round"></path><path fill="none" d="M4.5 7.5V5C4.5 3.067 6.067 1.5 8 1.5C9.933 1.5 11.5 3.067 11.5 5V7.5" stroke="#737780" stroke-width="1.5" stroke-linecap="round" stroke-linejoin="round"></path><path fill="none" fill-rule="evenodd" clip-rule="evenodd" d="M8 13.5C8.82843 13.5 9.5 12.8284 9.5 12C9.5 11.1716 8.82843 10.5 8 10.5C7.17157 10.5 6.5 11.1716 6.5 12C6.5 12.8284 7.17157 13.5 8 13.5Z" stroke="#737780" stroke-width="1.5" stroke-linecap="round" stroke-linejoin="round"></path>
					</svg>