<svg width="56" height="56" viewBox="0 0 56 56" fill="none" xmlns="http://www.w3.org/2000/svg">
<path fill-rule="evenodd" clip-rule="evenodd" d="M26.8333 27.8334C26.8333 27.2811 27.281 26.8334 27.8333 26.8334H53.8333C54.3855 26.8334 54.8333 27.2811 54.8333 27.8334V53.8334C54.8333 54.3857 54.3855 54.8334 53.8333 54.8334H27.8333C27.281 54.8334 26.8333 54.3857 26.8333 53.8334V27.8334Z" stroke="#737780" stroke-linecap="round" stroke-linejoin="round"/>
<path fill-rule="evenodd" clip-rule="evenodd" d="M36.4583 39.6667C38.3913 39.6667 39.9583 38.0997 39.9583 36.1667C39.9583 34.2337 38.3913 32.6667 36.4583 32.6667C34.5253 32.6667 32.9583 34.2337 32.9583 36.1667C32.9583 38.0997 34.5253 39.6667 36.4583 39.6667Z" stroke="#737780" stroke-linecap="round" stroke-linejoin="round"/>
<path d="M54.8333 49.5836L49.2543 41.2139C48.9337 40.7324 48.3958 40.4404 47.8174 40.4339C47.2389 40.4274 46.6947 40.7071 46.3633 41.1812L41.6966 47.8336L38.8126 45.5259C38.4292 45.2199 37.935 45.0887 37.4503 45.1641C36.9656 45.2395 36.5346 45.5146 36.2623 45.9226L30.3333 54.8335" stroke="#737780" stroke-linecap="round" stroke-linejoin="round"/>
<path fill-rule="evenodd" clip-rule="evenodd" d="M17.4999 21C22.9767 21 27.4166 16.5602 27.4166 11.0834C27.4166 5.60653 22.9767 1.16669 17.4999 1.16669C12.0231 1.16669 7.58325 5.60653 7.58325 11.0834C7.58325 16.5602 12.0231 21 17.4999 21Z" stroke="#737780" stroke-linecap="round" stroke-linejoin="round"/>
<path d="M19.8333 24.6658C15.1433 23.9928 10.392 25.388 6.8106 28.49C3.22916 31.592 1.16999 36.0954 1.16663 40.8334H19.8333" stroke="#737780" stroke-linecap="round" stroke-linejoin="round"/>
</svg>
