<svg width="24" height="25" viewBox="0 0 24 25" fill="none" xmlns="http://www.w3.org/2000/svg">
<path d="M3.75 16.7469C2.09315 16.7469 0.75 15.4038 0.75 13.7469V4.74695C0.75 3.09009 2.09315 1.74695 3.75 1.74695H20.25C21.9069 1.74695 23.25 3.09009 23.25 4.74695V13.7469C23.251 14.4776 22.9846 15.1833 22.501 15.7309" stroke="white" stroke-width="1.5" stroke-linecap="round" stroke-linejoin="round"/>
<path fill-rule="evenodd" clip-rule="evenodd" d="M11.25 24.247L7.40001 19.115C7.01014 18.5952 6.99011 17.886 7.35001 17.345V17.345C7.58393 16.9948 7.95155 16.7561 8.36666 16.685C8.78178 16.6139 9.20787 16.7166 9.54501 16.969L11.245 18.247V8.50001C11.245 8.10132 11.4037 7.71903 11.6861 7.43758C11.9685 7.15613 12.3513 6.99868 12.75 7.00001V7.00001C13.5784 7.00001 14.25 7.67158 14.25 8.50001V14.5L18.424 15.428C19.8969 15.7553 20.8975 17.1254 20.761 18.628L20.25 24.25L11.25 24.247Z" stroke="white" stroke-width="1.5" stroke-linecap="round" stroke-linejoin="round"/>
</svg>
