<svg width="24" height="24" viewBox="0 0 24 24" fill="none" xmlns="http://www.w3.org/2000/svg">
<g clip-path="url(#clip0)">
<path d="M8.02127 23.9999C10.2176 23.9999 12.0001 22.2079 12.0001 19.9999V15.9999H8.02127C5.82498 15.9999 4.04248 17.7919 4.04248 19.9999C4.04248 22.2079 5.82498 23.9999 8.02127 23.9999Z" fill="#24CE85"/>
<path d="M4.04248 12.0001C4.04248 9.79206 5.82498 8.00006 8.02127 8.00006H12.0001V16H8.02127C5.82498 16 4.04248 14.2081 4.04248 12.0001Z" fill="#A160FB"/>
<path d="M4.04248 4C4.04248 1.792 5.82498 0 8.02127 0H12.0001V8H8.02127C5.82498 8 4.04248 6.208 4.04248 4Z" fill="#EF4F2B"/>
<path d="M12 0H15.9788C18.1751 0 19.9576 1.792 19.9576 4C19.9576 6.208 18.1751 8 15.9788 8H12V0Z" fill="#FD7366"/>
<path d="M19.9576 12.0001C19.9576 14.2081 18.1751 16 15.9788 16C13.7825 16 12 14.2081 12 12.0001C12 9.79206 13.7825 8.00006 15.9788 8.00006C18.1751 8.00006 19.9576 9.79206 19.9576 12.0001Z" fill="#2CBDFB"/>
</g>
<defs>
<clipPath id="clip0">
<rect width="15.9184" height="24" fill="white" transform="translate(4.04077)"/>
</clipPath>
</defs>
</svg>
