<svg width="24" height="24" viewBox="0 0 24 24" fill="none" xmlns="http://www.w3.org/2000/svg">
<path d="M8.15625 18.8984C8.15625 19.0234 8.07812 19.0859 7.92188 19.0859C7.73438 19.1172 7.64062 19.0547 7.64062 18.8984C7.64062 18.8047 7.71875 18.7578 7.875 18.7578C8.0625 18.7266 8.15625 18.7734 8.15625 18.8984ZM6.89062 18.9453C6.70312 18.9141 6.625 18.8359 6.65625 18.7109C6.71875 18.5859 6.82812 18.5547 6.98438 18.6172C7.14062 18.6484 7.20312 18.7266 7.17188 18.8516C7.14062 18.9766 7.04688 19.0078 6.89062 18.9453ZM8.76562 18.6172C8.92188 18.6172 9 18.6641 9 18.7578C9.03125 18.8516 8.96875 18.9297 8.8125 18.9922C8.65625 19.0234 8.5625 18.9766 8.53125 18.8516C8.53125 18.7266 8.60938 18.6484 8.76562 18.6172ZM11.8594 0.664062C13.9844 0.664062 15.9531 1.16406 17.7656 2.16406C19.5781 3.16406 21 4.53906 22.0312 6.28906C23.0938 8.03906 23.625 9.97656 23.625 12.1016C23.625 14.6953 22.8906 17.0234 21.4219 19.0859C19.9844 21.1172 18.0938 22.5234 15.75 23.3047C15.5 23.3672 15.2969 23.3359 15.1406 23.2109C15.0156 23.0859 14.9531 22.9297 14.9531 22.7422C14.9531 22.7109 14.9531 22.2109 14.9531 21.2422C14.9531 20.2422 14.9531 19.4297 14.9531 18.8047C14.9531 17.8047 14.6875 17.0859 14.1562 16.6484C14.8438 16.5547 15.375 16.4766 15.75 16.4141C16.125 16.3516 16.5938 16.2109 17.1562 15.9922C17.7188 15.7734 18.1406 15.4922 18.4219 15.1484C18.7344 14.8047 19 14.3203 19.2188 13.6953C19.4375 13.0703 19.5469 12.3203 19.5469 11.4453C19.5469 10.8516 19.4531 10.3672 19.2656 9.99219C19.0781 9.61719 18.7656 9.19531 18.3281 8.72656C18.7031 7.75781 18.6719 6.69531 18.2344 5.53906C17.9219 5.44531 17.5 5.50781 16.9688 5.72656C16.4375 5.91406 15.9688 6.13281 15.5625 6.38281L15 6.80469C14.0312 6.52344 13.0312 6.38281 12 6.38281C11 6.38281 10.0312 6.52344 9.09375 6.80469C8.9375 6.67969 8.71875 6.53906 8.4375 6.38281C8.15625 6.19531 7.71875 5.99219 7.125 5.77344C6.5625 5.52344 6.14062 5.44531 5.85938 5.53906C5.39062 6.69531 5.34375 7.75781 5.71875 8.72656C5 9.50781 4.64062 10.4141 4.64062 11.4453C4.64062 12.3203 4.75 13.0703 4.96875 13.6953C5.1875 14.3203 5.4375 14.8047 5.71875 15.1484C6 15.4922 6.40625 15.7734 6.9375 15.9922C7.46875 16.2109 7.92188 16.3672 8.29688 16.4609C8.70312 16.5234 9.23438 16.5859 9.89062 16.6484C9.48438 17.0234 9.23438 17.5547 9.14062 18.2422C8.82812 18.3672 8.5 18.4609 8.15625 18.5234C7.84375 18.5859 7.4375 18.5234 6.9375 18.3359C6.4375 18.1484 6.03125 17.7891 5.71875 17.2578C5.53125 16.9141 5.28125 16.6484 4.96875 16.4609C4.6875 16.2422 4.4375 16.1172 4.21875 16.0859L3.9375 16.0391C3.25 16.0391 3.21875 16.2734 3.84375 16.7422C4.0625 16.8672 4.28125 17.0703 4.5 17.3516C4.71875 17.6328 4.875 17.8828 4.96875 18.1016L5.15625 18.4766C5.28125 18.8516 5.5 19.1641 5.8125 19.4141C6.125 19.6641 6.46875 19.8203 6.84375 19.8828C7.21875 19.9453 7.57812 19.9766 7.92188 19.9766C8.26562 19.9766 8.54688 19.9609 8.76562 19.9297L9.09375 19.8828C9.09375 20.2578 9.09375 20.8203 9.09375 21.5703C9.125 22.3203 9.14062 22.7109 9.14062 22.7422C9.14062 22.9297 9.0625 23.0859 8.90625 23.2109C8.78125 23.3359 8.59375 23.3672 8.34375 23.3047C5.96875 22.5234 4.04688 21.1172 2.57812 19.0859C1.10938 17.0234 0.375 14.6953 0.375 12.1016C0.375 8.85156 1.46875 6.13281 3.65625 3.94531C5.875 1.75781 8.60938 0.664062 11.8594 0.664062ZM4.92188 16.8359C4.98438 16.7734 5.0625 16.7891 5.15625 16.8828C5.25 16.9766 5.26562 17.0547 5.20312 17.1172C5.14062 17.1797 5.0625 17.1641 4.96875 17.0703C4.875 16.9766 4.85938 16.8984 4.92188 16.8359ZM4.40625 16.4609C4.46875 16.3984 4.54688 16.3828 4.64062 16.4141C4.73438 16.4766 4.76562 16.5391 4.73438 16.6016C4.70312 16.6953 4.64062 16.7109 4.54688 16.6484C4.42188 16.5859 4.375 16.5234 4.40625 16.4609ZM5.95312 18.1016C6.01562 18.0078 6.10938 18.0234 6.23438 18.1484C6.35938 18.2734 6.39062 18.3828 6.32812 18.4766C6.23438 18.5703 6.125 18.5547 6 18.4297C5.875 18.3047 5.85938 18.1953 5.95312 18.1016ZM5.39062 17.4453C5.48438 17.3516 5.57812 17.3828 5.67188 17.5391C5.76562 17.6641 5.76562 17.7578 5.67188 17.8203C5.57812 17.8828 5.48438 17.8516 5.39062 17.7266C5.32812 17.5703 5.32812 17.4766 5.39062 17.4453Z" fill="black"/>
</svg>
