<svg width="24" height="24" viewBox="0 0 24 24" fill="none" xmlns="http://www.w3.org/2000/svg">
<path fill-rule="evenodd" clip-rule="evenodd" d="M12.037 23.25C12.787 22.5 18.25 11.481 18.25 11.481C18.569 10.6856 18.5326 9.79181 18.15 9.025L15.75 5.25H8.24999L5.84999 9.025C5.46741 9.79181 5.43102 10.6856 5.74999 11.481C5.74999 11.481 11.287 22.5 12.037 23.25Z" stroke="white" stroke-width="1.5" stroke-linecap="round" stroke-linejoin="round"/>
<path d="M12 16.5V12.48" stroke="white" stroke-width="1.5" stroke-linecap="round" stroke-linejoin="round"/>
<path fill-rule="evenodd" clip-rule="evenodd" d="M12 12.48C12.8284 12.48 13.5 11.8084 13.5 10.98C13.5 10.1516 12.8284 9.47998 12 9.47998C11.1716 9.47998 10.5 10.1516 10.5 10.98C10.5 11.8084 11.1716 12.48 12 12.48Z" stroke="white" stroke-width="1.5" stroke-linecap="round" stroke-linejoin="round"/>
<path fill-rule="evenodd" clip-rule="evenodd" d="M15.75 5.25H8.24999L6.96099 1.98C6.77479 1.75646 6.73468 1.4454 6.85806 1.18193C6.98144 0.918458 7.24606 0.750109 7.53699 0.75H16.537C16.8279 0.750109 17.0925 0.918458 17.2159 1.18193C17.3393 1.4454 17.2992 1.75646 17.113 1.98L15.75 5.25Z" stroke="white" stroke-width="1.5" stroke-linecap="round" stroke-linejoin="round"/>
</svg>
