<svg width="24" height="25" viewBox="0 0 24 25" fill="none" xmlns="http://www.w3.org/2000/svg">
<path fill-rule="evenodd" clip-rule="evenodd" d="M6.75 3.24695C6.75 2.41852 7.42157 1.74695 8.25 1.74695H15.75C16.5784 1.74695 17.25 2.41852 17.25 3.24695V22.7469C17.25 23.5754 16.5784 24.2469 15.75 24.2469H8.25C7.42157 24.2469 6.75 23.5754 6.75 22.7469V3.24695Z" stroke="white" stroke-width="1.5" stroke-linecap="round" stroke-linejoin="round"/>
<path fill-rule="evenodd" clip-rule="evenodd" d="M0.75 2.49695C0.75 2.08274 1.08579 1.74695 1.5 1.74695H3C3.41421 1.74695 3.75 2.08273 3.75 2.49695V23.4969C3.75 23.9112 3.41421 24.2469 3 24.2469H1.5C1.08579 24.2469 0.75 23.9112 0.75 23.4969V2.49695Z" stroke="white" stroke-width="1.5" stroke-linecap="round" stroke-linejoin="round"/>
<path fill-rule="evenodd" clip-rule="evenodd" d="M20.25 2.49695C20.25 2.08274 20.5858 1.74695 21 1.74695H22.5C22.9142 1.74695 23.25 2.08273 23.25 2.49695V23.4969C23.25 23.9112 22.9142 24.2469 22.5 24.2469H21C20.5858 24.2469 20.25 23.9112 20.25 23.4969V2.49695Z" stroke="white" stroke-width="1.5" stroke-linecap="round" stroke-linejoin="round"/>
</svg>
