<svg width="24" height="24" viewBox="0 0 24 24" fill="none" xmlns="http://www.w3.org/2000/svg">
<path d="M3.43399 10.537C3.5747 10.0993 3.74957 9.67332 3.95699 9.263" stroke="#737780" stroke-linecap="round" stroke-linejoin="round"/>
<path d="M3.069 14.425C3.02274 14.0535 2.9997 13.6794 3 13.305C3 13.0137 3.01367 12.726 3.041 12.442" stroke="#737780" stroke-linecap="round" stroke-linejoin="round"/>
<path d="M4.38899 18.111C4.04818 17.5721 3.76559 16.9986 3.54599 16.4" stroke="#737780" stroke-linecap="round" stroke-linejoin="round"/>
<path d="M7.16301 20.9C6.61967 20.5548 6.1148 20.1525 5.65701 19.7" stroke="#737780" stroke-linecap="round" stroke-linejoin="round"/>
<path d="M10.98 22.248C10.3299 22.1744 9.68973 22.0298 9.07101 21.817" stroke="#737780" stroke-linecap="round" stroke-linejoin="round"/>
<path d="M10 4.25H12C16.7827 4.264 20.7248 8.00515 20.9888 12.7806C21.2528 17.5561 17.7471 21.7089 12.995 22.25" stroke="#737780" stroke-linecap="round" stroke-linejoin="round"/>
<path d="M13.5 1.75L10 4.25L13.5 6.75" stroke="#737780" stroke-linecap="round" stroke-linejoin="round"/>
</svg>
