<svg width="24" height="24" viewBox="0 0 24 24" fill="none" xmlns="http://www.w3.org/2000/svg">
<path d="M20.566 10.537C20.4253 10.0993 20.2504 9.67332 20.043 9.263" stroke="#737780" stroke-linecap="round" stroke-linejoin="round"/>
<path d="M20.931 14.425C20.9773 14.0535 21.0003 13.6794 21 13.305C21 13.0137 20.9863 12.726 20.959 12.442" stroke="#737780" stroke-linecap="round" stroke-linejoin="round"/>
<path d="M19.611 18.111C19.952 17.5715 20.2346 16.9973 20.454 16.398" stroke="#737780" stroke-linecap="round" stroke-linejoin="round"/>
<path d="M16.837 20.9C17.3804 20.5548 17.8852 20.1525 18.343 19.7" stroke="#737780" stroke-linecap="round" stroke-linejoin="round"/>
<path d="M13.02 22.248C13.6702 22.1744 14.3103 22.0298 14.929 21.817" stroke="#737780" stroke-linecap="round" stroke-linejoin="round"/>
<path d="M14 4.25H12C7.21727 4.264 3.27517 8.00515 3.0112 12.7806C2.74722 17.5561 6.25295 21.7089 11.005 22.25" stroke="#737780" stroke-linecap="round" stroke-linejoin="round"/>
<path d="M10.5 1.75L14 4.25L10.5 6.75" stroke="#737780" stroke-linecap="round" stroke-linejoin="round"/>
</svg>
