<svg width="24" height="25" viewBox="0 0 24 25" fill="none" xmlns="http://www.w3.org/2000/svg">
<path d="M9 15.2928V15.0078C9 13.351 10.3431 12.0078 12 12.0078C13.6569 12.0078 15 13.351 15 15.0078V15.2928" stroke="#737780" stroke-width="1.5" stroke-linecap="round" stroke-linejoin="round"/>
<path d="M14.252 5.25781L12.002 12.0078" stroke="#737780" stroke-width="1.5" stroke-linecap="round" stroke-linejoin="round"/>
<path d="M6.37701 7.50781C6.16991 7.50781 6.00201 7.67571 6.00201 7.88281C6.00201 8.08992 6.16991 8.25781 6.37701 8.25781C6.58412 8.25781 6.75201 8.08992 6.75201 7.88281C6.75201 7.67571 6.58412 7.50781 6.37701 7.50781V7.50781" stroke="#737780" stroke-width="1.5" stroke-linecap="round" stroke-linejoin="round"/>
<path d="M19.127 11.2578C18.9199 11.2578 18.752 11.4257 18.752 11.6328C18.752 11.8399 18.9199 12.0078 19.127 12.0078C19.3341 12.0078 19.502 11.8399 19.502 11.6328C19.502 11.4257 19.3341 11.2578 19.127 11.2578V11.2578" stroke="#737780" stroke-width="1.5" stroke-linecap="round" stroke-linejoin="round"/>
<path d="M17.627 7.50782C17.4752 7.50701 17.3378 7.59786 17.2791 7.73792C17.2205 7.87798 17.252 8.0396 17.3591 8.14727C17.4662 8.25493 17.6277 8.28738 17.7681 8.22946C17.9084 8.17154 18 8.03467 18 7.88282C18 7.67571 17.8321 7.50782 17.625 7.50782V7.50782" stroke="#737780" stroke-width="1.5" stroke-linecap="round" stroke-linejoin="round"/>
<path d="M9.37701 4.50781C9.16991 4.50781 9.00201 4.67571 9.00201 4.88281C9.00201 5.08992 9.16991 5.25781 9.37701 5.25781C9.58412 5.25781 9.75201 5.08992 9.75201 4.88281C9.75201 4.67571 9.58412 4.50781 9.37701 4.50781V4.50781" stroke="#737780" stroke-width="1.5" stroke-linecap="round" stroke-linejoin="round"/>
<path d="M21.431 18.1428C15.8384 13.9628 8.16155 13.9628 2.56897 18.1428" stroke="#737780" stroke-width="1.5" stroke-linecap="round" stroke-linejoin="round"/>
<path fill-rule="evenodd" clip-rule="evenodd" d="M12 23.2578C18.2132 23.2578 23.25 18.221 23.25 12.0078C23.25 5.79461 18.2132 0.757812 12 0.757812C5.7868 0.757812 0.75 5.79461 0.75 12.0078C0.75 18.221 5.7868 23.2578 12 23.2578Z" stroke="#737780" stroke-width="1.5" stroke-linecap="round" stroke-linejoin="round"/>
<path d="M4.87701 11.2578C4.66991 11.2578 4.50201 11.4257 4.50201 11.6328C4.50201 11.8399 4.66991 12.0078 4.87701 12.0078C5.08412 12.0078 5.25201 11.8399 5.25201 11.6328C5.25201 11.4257 5.08412 11.2578 4.87701 11.2578" stroke="#737780" stroke-width="1.5" stroke-linecap="round" stroke-linejoin="round"/>
</svg>
