<svg width="56" height="56" viewBox="0 0 56 56" fill="none" xmlns="http://www.w3.org/2000/svg">
<path fill-rule="evenodd" clip-rule="evenodd" d="M37.3425 36.1667C47.0075 36.1667 54.8425 28.3316 54.8425 18.6667C54.8425 9.00167 47.0075 1.16666 37.3425 1.16666C27.6775 1.16666 19.8425 9.00167 19.8425 18.6667C19.8425 28.3316 27.6775 36.1667 37.3425 36.1667Z" stroke="#7F8794" stroke-linecap="round" stroke-linejoin="round"/>
<path d="M19.9032 19.894C12.6165 19.3748 5.77379 23.4366 2.73997 30.0821C-0.293859 36.7276 1.11953 44.5585 6.28513 49.7241C11.4507 54.8897 19.2816 56.3031 25.9271 53.2693C32.5726 50.2354 36.6344 43.3928 36.1152 36.106" stroke="#7F8794" stroke-linecap="round" stroke-linejoin="round"/>
<path d="M17.5092 31.5V29.1667" stroke="#7F8794" stroke-linecap="round" stroke-linejoin="round"/>
<path d="M20.9999 31.5H16.2656C14.7661 31.501 13.4779 32.5649 13.1933 34.0371C12.9088 35.5093 13.7078 36.9766 15.0989 37.5363L19.9149 39.4637C21.306 40.0234 22.105 41.4907 21.8205 42.9629C21.5359 44.4351 20.2477 45.499 18.7482 45.5H13.9999" stroke="#7F8794" stroke-linecap="round" stroke-linejoin="round"/>
<path d="M17.5092 47.8333V45.5" stroke="#7F8794" stroke-linecap="round" stroke-linejoin="round"/>
<path d="M37.3425 11.6666V9.33331" stroke="#7F8794" stroke-linecap="round" stroke-linejoin="round"/>
<path d="M40.8333 11.6667H36.0989C34.5995 11.6677 33.3112 12.7316 33.0267 14.2038C32.7421 15.676 33.5412 17.1433 34.9323 17.703L39.7483 19.6303C41.1393 20.19 41.9384 21.6573 41.6538 23.1295C41.3693 24.6017 40.0811 25.6656 38.5816 25.6667H33.8333" stroke="#7F8794" stroke-linecap="round" stroke-linejoin="round"/>
<path d="M37.3425 28V25.6667" stroke="#7F8794" stroke-linecap="round" stroke-linejoin="round"/>
</svg>
