<svg width="24" height="24" viewBox="0 0 24 24" fill="none" xmlns="http://www.w3.org/2000/svg">
<path fill-rule="evenodd" clip-rule="evenodd" d="M23.119 20L13.772 2.15001C13.4267 1.49115 12.7443 1.07834 12.0005 1.07834C11.2566 1.07834 10.5742 1.49115 10.229 2.15001L0.88098 20C0.556213 20.62 0.579202 21.3647 0.941595 21.9635C1.30399 22.5623 1.95305 22.9281 2.65298 22.928H21.347C22.0469 22.9281 22.696 22.5623 23.0584 21.9635C23.4208 21.3647 23.4437 20.62 23.119 20ZM11 8.42301C11 7.87073 11.4477 7.42301 12 7.42301C12.5523 7.42301 13 7.87073 13 8.42301V14.423C13 14.9753 12.5523 15.423 12 15.423C11.4477 15.423 11 14.9753 11 14.423V8.42301ZM12.022 19.933H12.05C12.4471 19.9266 12.8248 19.7603 13.0977 19.4718C13.3706 19.1832 13.5156 18.7969 13.5 18.4C13.4678 17.5814 12.7953 16.934 11.976 16.933H11.948C11.5519 16.9403 11.1753 17.1064 10.903 17.3942C10.6306 17.6819 10.4854 18.0671 10.5 18.463C10.5311 19.2819 11.2026 19.9304 12.022 19.933Z" fill="#7F8794"/>
</svg>
