<svg width="56" height="56" viewBox="0 0 56 56" fill="none" xmlns="http://www.w3.org/2000/svg">
<path fill-rule="evenodd" clip-rule="evenodd" d="M28 15.75C31.866 15.75 35 12.616 35 8.75C35 4.88401 31.866 1.75 28 1.75C24.134 1.75 21 4.88401 21 8.75C21 12.616 24.134 15.75 28 15.75Z" stroke="#7F8794" stroke-linecap="round" stroke-linejoin="round"/>
<path fill-rule="evenodd" clip-rule="evenodd" d="M10.5 19.25C13.3995 19.25 15.75 16.8995 15.75 14C15.75 11.1005 13.3995 8.75 10.5 8.75C7.6005 8.75 5.25 11.1005 5.25 14C5.25 16.8995 7.6005 19.25 10.5 19.25Z" stroke="#7F8794" stroke-linecap="round" stroke-linejoin="round"/>
<path d="M10.5 22.75C5.66751 22.75 1.75 26.6675 1.75 31.5V36.75H5.25L7 50.75H14" stroke="#7F8794" stroke-linecap="round" stroke-linejoin="round"/>
<path fill-rule="evenodd" clip-rule="evenodd" d="M45.5 19.25C48.3995 19.25 50.75 16.8995 50.75 14C50.75 11.1005 48.3995 8.75 45.5 8.75C42.6005 8.75 40.25 11.1005 40.25 14C40.25 16.8995 42.6005 19.25 45.5 19.25Z" stroke="#7F8794" stroke-linecap="round" stroke-linejoin="round"/>
<path d="M45.5 22.75C50.3325 22.75 54.25 26.6675 54.25 31.5V36.75H50.75L49 50.75H42" stroke="#7F8794" stroke-linecap="round" stroke-linejoin="round"/>
<path fill-rule="evenodd" clip-rule="evenodd" d="M40.25 31.5C40.25 24.7345 34.7655 19.25 28 19.25C21.2345 19.25 15.75 24.7345 15.75 31.5V36.75H21L22.75 54.25H33.25L35 36.75H40.25V31.5Z" stroke="#7F8794" stroke-linecap="round" stroke-linejoin="round"/>
</svg>
