<svg width="26" height="26" viewBox="0 0 26 26" fill="none" xmlns="http://www.w3.org/2000/svg">
<path fill-rule="evenodd" clip-rule="evenodd" d="M5.51099 22.33H9.51099V19.33C9.51099 18.7777 9.06327 18.33 8.51099 18.33H6.51099C5.9587 18.33 5.51099 18.7777 5.51099 19.33L5.51099 22.33Z" stroke="#7F8794" stroke-width="1.5" stroke-linecap="round" stroke-linejoin="round"/>
<path fill-rule="evenodd" clip-rule="evenodd" d="M16.505 22.3309H20.505V19.3309C20.505 18.7786 20.0573 18.3309 19.505 18.3309H17.505C16.9527 18.3309 16.505 18.7786 16.505 19.3309V22.3309Z" stroke="#7F8794" stroke-width="1.5" stroke-linecap="round" stroke-linejoin="round"/>
<path d="M13.007 23.0799C13.0064 22.1142 12.2237 21.3315 11.258 21.3309H9.50897" stroke="#7F8794" stroke-width="1.5" stroke-linecap="round" stroke-linejoin="round"/>
<path d="M13.007 23.0799C13.0076 22.1142 13.7903 21.3315 14.756 21.3309H16.505" stroke="#7F8794" stroke-width="1.5" stroke-linecap="round" stroke-linejoin="round"/>
<path d="M7.51001 18.333V19.832" stroke="#7F8794" stroke-width="1.5" stroke-linecap="round" stroke-linejoin="round"/>
<path d="M18.504 18.333V19.832" stroke="#7F8794" stroke-width="1.5" stroke-linecap="round" stroke-linejoin="round"/>
<path d="M7.51001 22.3309V24.3299" stroke="#7F8794" stroke-width="1.5" stroke-linecap="round" stroke-linejoin="round"/>
<path d="M18.504 22.3309V24.3299" stroke="#7F8794" stroke-width="1.5" stroke-linecap="round" stroke-linejoin="round"/>
<path d="M5.51099 22.3309V23.3299" stroke="#7F8794" stroke-width="1.5" stroke-linecap="round" stroke-linejoin="round"/>
<path d="M9.50897 22.3309V23.3299" stroke="#7F8794" stroke-width="1.5" stroke-linecap="round" stroke-linejoin="round"/>
<path d="M16.505 22.3309V23.3299" stroke="#7F8794" stroke-width="1.5" stroke-linecap="round" stroke-linejoin="round"/>
<path d="M20.502 22.0809V23.3299" stroke="#7F8794" stroke-width="1.5" stroke-linecap="round" stroke-linejoin="round"/>
<path d="M5.511 21.331H3.249C2.23862 21.2129 1.48233 20.3481 1.5 19.331C1.50094 18.8688 1.68548 18.426 2.013 18.1L10.013 10.053L10.513 4.59598C10.8742 3.40103 11.6693 2.38441 12.742 1.74598C12.9039 1.64506 13.1091 1.64506 13.271 1.74598C14.3448 2.38251 15.1417 3.3977 15.505 4.59198L16 10.049L23.994 18.1C24.3187 18.4265 24.5007 18.8685 24.5 19.329C24.5177 20.3461 23.7614 21.2109 22.751 21.329H20.5" stroke="#7F8794" stroke-width="1.5" stroke-linecap="round" stroke-linejoin="round"/>
<path d="M9.50897 13.8359V16.3349" stroke="#7F8794" stroke-width="1.5" stroke-linecap="round" stroke-linejoin="round"/>
<path d="M16.505 13.8359V16.3349" stroke="#7F8794" stroke-width="1.5" stroke-linecap="round" stroke-linejoin="round"/>
<path d="M15.237 3.85303C14.5549 4.24701 13.7808 4.45398 12.993 4.45303C12.2135 4.454 11.4472 4.25131 10.77 3.86503" stroke="#7F8794" stroke-width="1.5" stroke-linecap="round" stroke-linejoin="round"/>
</svg>
