<svg width="24" height="24" viewBox="0 0 24 24" fill="none" xmlns="http://www.w3.org/2000/svg">
<path d="M19.805 10.1199C19.6287 9.57484 19.1587 9.17686 18.592 9.0929L14.967 8.56989L13.341 5.29989C13.0872 4.79077 12.5673 4.46899 11.9985 4.46899C11.4296 4.46899 10.9097 4.79077 10.656 5.29989L9.03499 8.56889L5.41099 9.0929C4.84714 9.17703 4.37875 9.57155 4.19999 10.1129C4.02035 10.6576 4.16886 11.257 4.58199 11.6549L7.19999 14.1909L6.58099 17.7759C6.4848 18.3381 6.71575 18.9062 7.17692 19.2417C7.63808 19.5773 8.24966 19.6223 8.75499 19.3579L12 17.6619L15.248 19.3619C15.7537 19.6267 16.3658 19.5815 16.8272 19.2454C17.2885 18.9093 17.5191 18.3404 17.422 17.7779L16.8 14.1919L19.418 11.6549C19.8285 11.2585 19.9785 10.6635 19.805 10.1199Z" fill="#7F8794"/>
</svg>
