<svg width="24" height="24" viewBox="0 0 24 24" fill="none" xmlns="http://www.w3.org/2000/svg">
<path fill-rule="evenodd" clip-rule="evenodd" d="M19.5 15.7499L22.811 12.4389C23.3966 11.8532 23.3966 10.9037 22.811 10.3179L20.7 8.21194C20.0431 9.77072 18.4239 10.6967 16.7472 10.4725C15.0706 10.2483 13.7517 8.92932 13.5274 7.25269C13.3032 5.57606 14.2292 3.95687 15.788 3.29994L13.682 1.18894C13.0962 0.603363 12.1467 0.603363 11.561 1.18894L8.25 4.49994C8.25 2.42887 6.57106 0.749936 4.5 0.749936C2.42893 0.749936 0.749997 2.42887 0.749997 4.49994C0.749997 6.571 2.42893 8.24994 4.5 8.24994L1.189 11.5609C0.603424 12.1467 0.603424 13.0962 1.189 13.6819L3.3 15.7879C3.95693 14.2292 5.57612 13.3031 7.25275 13.5274C8.92938 13.7516 10.2483 15.0706 10.4726 16.7472C10.6968 18.4238 9.77078 20.043 8.212 20.6999L10.318 22.8069C10.9037 23.3925 11.8532 23.3925 12.439 22.8069L15.75 19.4999C15.75 21.571 17.4289 23.2499 19.5 23.2499C21.5711 23.2499 23.25 21.571 23.25 19.4999C23.25 17.4289 21.5711 15.7499 19.5 15.7499Z" stroke="#7F8794" stroke-width="1.5" stroke-linecap="round" stroke-linejoin="round"/>
</svg>
