<svg width="56" height="56" viewBox="0 0 56 56" fill="none" xmlns="http://www.w3.org/2000/svg">
<path d="M29.1713 51.6602V54.7845" stroke="#7F8794" stroke-linecap="round" stroke-linejoin="round"/>
<path fill-rule="evenodd" clip-rule="evenodd" d="M40.6396 28.7258C39.6036 34.8928 29.1713 45.4045 29.1713 51.6602C29.1713 45.4045 19.0166 35.9008 17.7053 28.7258C16.8924 25.3224 17.7495 21.7353 20.0131 19.067C22.2768 16.3987 25.6762 14.9685 29.1666 15.2158C32.6596 14.9625 36.064 16.3904 38.3309 19.0599C40.5979 21.7294 41.4555 25.32 40.6396 28.7258Z" stroke="#7F8794" stroke-linecap="round" stroke-linejoin="round"/>
<path fill-rule="evenodd" clip-rule="evenodd" d="M34.4213 26.1683C34.4213 29.0678 32.0708 31.4183 29.1713 31.4183C26.2718 31.4183 23.9213 29.0678 23.9213 26.1683C23.9213 23.2688 26.2718 20.9183 29.1713 20.9183C32.0708 20.9183 34.4213 23.2688 34.4213 26.1683V26.1683Z" stroke="#7F8794" stroke-linecap="round" stroke-linejoin="round"/>
<path d="M43.1713 37.6602V40.7845" stroke="#7F8794" stroke-linecap="round" stroke-linejoin="round"/>
<path d="M31.8686 15.4583C31.8056 15.211 31.7496 14.9683 31.7053 14.7257C30.8924 11.3222 31.7495 7.73515 34.0131 5.06685C36.2768 2.39855 39.6762 0.968289 43.1666 1.21565C46.6588 0.963845 50.0618 2.39251 52.3276 5.06173C54.5934 7.73095 55.4505 11.3207 54.635 14.7257C53.6036 20.8927 43.1666 31.4043 43.1666 37.66C42.8532 34.9525 41.8541 32.3697 40.264 30.156" stroke="#7F8794" stroke-linecap="round" stroke-linejoin="round"/>
<path fill-rule="evenodd" clip-rule="evenodd" d="M48.4213 12.1683C48.4213 15.0678 46.0708 17.4183 43.1713 17.4183C40.2718 17.4183 37.9213 15.0678 37.9213 12.1683C37.9213 9.26881 40.2718 6.9183 43.1713 6.9183C46.0708 6.9183 48.4213 9.26881 48.4213 12.1683Z" stroke="#7F8794" stroke-linecap="round" stroke-linejoin="round"/>
<path d="M12.852 37.6602V40.7845" stroke="#7F8794" stroke-linecap="round" stroke-linejoin="round"/>
<path d="M17.514 27.223C15.0196 31.0777 12.8473 34.7713 12.8473 37.66C12.8473 31.4043 2.69264 21.9007 1.38131 14.7257C0.567742 11.3206 1.42591 7.73159 3.69183 5.06283C5.95774 2.39407 9.36 0.965158 12.852 1.21567C16.3441 0.963614 19.747 2.39232 22.0125 5.06172C24.278 7.73111 25.1345 11.321 24.318 14.7257C24.2269 15.236 24.0934 15.7378 23.919 16.226" stroke="#7F8794" stroke-linecap="round" stroke-linejoin="round"/>
<path fill-rule="evenodd" clip-rule="evenodd" d="M18.102 12.1683C18.102 15.0678 15.7515 17.4183 12.852 17.4183C9.95249 17.4183 7.60199 15.0678 7.60199 12.1683C7.60199 9.26881 9.95249 6.9183 12.852 6.9183C15.7515 6.9183 18.102 9.26881 18.102 12.1683Z" stroke="#7F8794" stroke-linecap="round" stroke-linejoin="round"/>
</svg>
