<svg width="56" height="56" viewBox="0 0 56 56" fill="none" xmlns="http://www.w3.org/2000/svg">
<path d="M24.5 54.8333H3.50002C2.21136 54.8333 1.16669 53.7886 1.16669 52.5V3.49996C1.16669 2.21129 2.21136 1.16663 3.50002 1.16663H34.517C35.1362 1.16738 35.7296 1.41415 36.1667 1.85263L44.8164 10.5C45.254 10.9374 45.4999 11.5308 45.5 12.1496V19.8333" stroke="#7F8794" stroke-linecap="round" stroke-linejoin="round"/>
<path d="M21.098 36.1201C15.1215 35.5689 10.5384 30.5731 10.5031 24.5713C10.4679 18.5696 14.992 13.5203 20.9615 12.8988C26.9311 12.2774 32.3983 16.2865 33.6 22.1668" stroke="#7F8794" stroke-linecap="round" stroke-linejoin="round"/>
<path d="M22.1667 17.5022V24.5022H26.8333" stroke="#7F8794" stroke-linecap="round" stroke-linejoin="round"/>
<path fill-rule="evenodd" clip-rule="evenodd" d="M40.8334 54.8356C48.5654 54.8356 54.8334 48.5676 54.8334 40.8356C54.8334 33.1036 48.5654 26.8356 40.8334 26.8356C33.1014 26.8356 26.8334 33.1036 26.8334 40.8356C26.8334 48.5676 33.1014 54.8356 40.8334 54.8356Z" stroke="#7F8794" stroke-linecap="round" stroke-linejoin="round"/>
<path d="M47.0726 36.7639L40.2943 45.8033C39.9893 46.2089 39.5235 46.4623 39.0173 46.4981C38.5111 46.5339 38.0143 46.3486 37.6553 45.9899L34.1553 42.4899" stroke="#7F8794" stroke-linecap="round" stroke-linejoin="round"/>
</svg>
