<svg width="56" height="56" viewBox="0 0 56 56" fill="none" xmlns="http://www.w3.org/2000/svg">
<path d="M24.5 54.8333H3.50002C2.21136 54.8333 1.16669 53.7887 1.16669 52.5V3.49999C1.16669 2.21133 2.21136 1.16666 3.50002 1.16666H34.517C35.1362 1.16741 35.7296 1.41419 36.1667 1.85266L44.8164 10.5C45.254 10.9375 45.4999 11.5309 45.5 12.1497V19.8333" stroke="#7F8794" stroke-linecap="round" stroke-linejoin="round"/>
<path d="M20.8554 36.0967C15.1327 35.4476 10.74 30.7197 10.5126 24.9649C10.2853 19.2101 14.2914 14.1504 19.945 13.0519C25.5986 11.9534 31.2079 15.1448 33.152 20.566" stroke="#7F8794" stroke-linecap="round" stroke-linejoin="round"/>
<path d="M22.1667 17.5023V24.5023H26.8333" stroke="#7F8794" stroke-linecap="round" stroke-linejoin="round"/>
<path fill-rule="evenodd" clip-rule="evenodd" d="M40.8334 54.8356C48.5654 54.8356 54.8334 48.5676 54.8334 40.8356C54.8334 33.1036 48.5654 26.8356 40.8334 26.8356C33.1014 26.8356 26.8334 33.1036 26.8334 40.8356C26.8334 48.5676 33.1014 54.8356 40.8334 54.8356Z" stroke="#7F8794" stroke-linecap="round" stroke-linejoin="round"/>
<path d="M40.8334 47.8356V33.8356" stroke="#7F8794" stroke-linecap="round" stroke-linejoin="round"/>
<path d="M40.8334 33.8356L35.5834 39.0856" stroke="#7F8794" stroke-linecap="round" stroke-linejoin="round"/>
<path d="M40.8334 33.8356L46.0834 39.0856" stroke="#7F8794" stroke-linecap="round" stroke-linejoin="round"/>
</svg>
