<svg width="24" height="24" viewBox="0 0 24 24" fill="none" xmlns="http://www.w3.org/2000/svg">
<path fill-rule="evenodd" clip-rule="evenodd" d="M12 13.4519C12.8284 13.4519 13.5 12.7803 13.5 11.9519C13.5 11.1235 12.8284 10.4519 12 10.4519C11.1716 10.4519 10.5 11.1235 10.5 11.9519C10.5 12.7803 11.1716 13.4519 12 13.4519Z" stroke="#7F8794" stroke-width="1.5" stroke-linecap="round" stroke-linejoin="round"/>
<path d="M15.712 8.23999C16.697 9.22444 17.2503 10.5599 17.2503 11.9525C17.2503 13.3451 16.697 14.6805 15.712 15.665" stroke="#7F8794" stroke-width="1.5" stroke-linecap="round" stroke-linejoin="round"/>
<path d="M8.28799 15.665C7.30306 14.6805 6.74969 13.3451 6.74969 11.9525C6.74969 10.5599 7.30306 9.22444 8.28799 8.23999" stroke="#7F8794" stroke-width="1.5" stroke-linecap="round" stroke-linejoin="round"/>
<path d="M17.834 6.1189C21.0551 9.34092 21.0551 14.5639 17.834 17.7859" stroke="#7F8794" stroke-width="1.5" stroke-linecap="round" stroke-linejoin="round"/>
<path d="M6.16604 17.7859C4.6187 16.2389 3.74939 14.1404 3.74939 11.9524C3.74939 9.76434 4.6187 7.66593 6.16604 6.1189" stroke="#7F8794" stroke-width="1.5" stroke-linecap="round" stroke-linejoin="round"/>
<path d="M19.955 4C24.3479 8.39364 24.3479 15.5164 19.955 19.91" stroke="#7F8794" stroke-width="1.5" stroke-linecap="round" stroke-linejoin="round"/>
<path d="M4.04501 19.907C-0.345897 15.5137 -0.345897 8.39329 4.04501 4" stroke="#7F8794" stroke-width="1.5" stroke-linecap="round" stroke-linejoin="round"/>
</svg>
